<svg width="1920" height="201" fill="none" xmlns="http://www.w3.org/2000/svg"><path fill="#0A1A40" d="M0 .56h1920v200H0z"/><path d="M811.084 90.15c-3.712-3.37-9.139-5.13-10.642-10.083M784.194 120.4c-1.699-1.522-4.168-2.506-6.084-3.762-1.551-1.016-3.245-2.558-4.519-3.908-.814-.861-1.775-2.724-2.105-3.81m-3.96 10.821c.397.035.655.381 1.03.536.943.391 1.617.844 2.452 1.409.221.149 1.595 1.178 1.128 1.427-1.117.594-2.71.369-3.919.53-1.258.17-.342-1.475-.07-1.922m47.585-40.397c.787 1.045.93 1.933.845 3.141-.29 4.109-4.47 7.152-7.072 9.66-3.538 3.41-6.086 7.747-9.614 11.148-3.987 3.842-7.792 7.887-11.788 11.736-1.466 1.414-3.098 2.61-4.561 4.019-.617.595-1.724 1.558-2.657 1.599-3.093.138-5.924 1.779-9.06 1.951-1.285.071-4.602.627-4.899-1.283-.16-1.026.299-2.132.152-3.159-.066-.467.115-1.957.289-2.351.608-1.369.546-3.181 1.039-4.682.552-1.686 1.629-2.476 2.681-3.819 1.712-2.184 3.523-4.325 5.304-6.513 1.551-1.907 3.049-3.775 4.821-5.482 1.966-1.895 3.549-4.174 5.508-6.062 3.266-3.147 6.744-5.902 10.221-8.805 1.792-1.494 3.9-2.543 5.564-4.147 1.59-1.532 3.106-2.74 5.642-1.838 1.494.53 2.686 1.162 4.131 1.835 1.162.541 2.212 2.07 3.114 3.025m-92.875 37.048c1.931-1.007 3.851-2.461 5.963-3.041 1.995-.548 4.291-.683 6.305-.159 2.449.641 3.919 2.313 5.354 4.3.515.713 1.071 1.387 1.632 2.063.453.545.926 1.303 1.555 1.667.526.304 1.164-.29 1.601-.53 1.499-.824 3.058-1.449 4.757-1.681 1.889-.258 3.702-.17 5.211 1.141.9.78 1.765 1.643 2.741 2.327.603.423 1.94-.151 2.546-.487M930.641 61.236c-3.564-1.298-9.112 2.269-11.179 5.18-3.387 4.766-5.372 10.847-6.975 16.432-1.645 5.735-1.924 13.44 2.099 18.351 3.16 3.859 9.876 7.174 14.832 7.81 4.811.618 10.972-1.353 14.159-4.965 2.196-2.486 3.865-6.865 2.763-10.1-.792-2.328-4.773-4.254-7.018-3.305-3.327 1.403-6.567 3.711-8.264 6.991-2.669 5.156-2.953 8.971.671 13.761 4.682 6.19 14.318 9.947 21.83 9.645 8.406-.337 18.352-3.51 24.527-9.333 2.826-2.664 4.919-5.883 6.521-9.404.92-2.023 2.242-4.604 1.712-6.886-.868-3.733-4.974-5.965-8.658-4.258-3.417 1.583-5.333 5.767-5.565 9.397-.185 2.881 2.208 6.084 3.978 8.167 2.285 2.686 6.087 4.373 9.345 5.535 9.43 3.362 19.521-3.541 27.021-8.661M1135.17 79.374c.59-2.212.8-3.676 3-4.724 2.14-1.026 4.42-.195 6.55.374 1.35.364 2.54.513 2.72 2.187.19 1.82.58 3.28.08 5.128-.26.983-.37.742.31.157 1.63-1.41 4-2.32 6-3.035 3.58-1.282 7.92-1.946 11.67-.941 1.06.286 4.63 1.296 4.41 2.909-.2 1.408.05 3.727-1.58 4.586-.87.46-1.54 1.265-2.39 1.757-.15.085-.67-.009-.6-.047.48-.275 1.26-.257 1.79-.324 4.69-.585 9.32-.072 13.79 1.487 1.6.56 2.41 1.672 3.52 2.844.67.698.56 1.565.99 2.144 1.06 1.449-2.17 3.362-2.81 4.085-.26.291-1.18.932-.48 1.232 1.31.56 2.57 1.101 3.78 1.895 2 1.32 4.2 3.113 4.71 5.58.73 3.544-2.29 5.699-5.16 7.042-3.25 1.527-6.11 1.441-9.45.441-.74-.22-1.03-.787-1.45-1.348-.12-.153-1.22 2.232-1.34 2.406-2.82 4.274-8.86 9.649-14.32 9.555-5.62-.096-19.92-2.812-13.86-11.236.47-.666 1.15-1.666 1.86-2.073.65-.375-.6.4-1.07.405-4.46.038-9.46-.286-13.42-2.561-3.92-2.247-6.47-5.966-8.43-9.857-1.46-2.895 1.32-5.26 3.26-6.665.55-.391 1.64-1.088 2.36-1.057.8.035.94.491 0 .499-2.25.02-4.6-.372-6.77-.953-2.28-.609-4.96-.935-6.78-2.545-4.57-4.05-5.81-13 1.24-14.96 3.06-.85 7.08-1.424 10.19-.589 1.82.487 4.39.711 5.89 1.922 1.19.96 3.17 2.838 3.49 4.39" stroke="#7C9DBB" stroke-width="7.5" stroke-miterlimit="10" stroke-linecap="round"/></svg>