<svg width="32" height="33" fill="none" xmlns="http://www.w3.org/2000/svg"><g clip-path="url('#clip0_1_125')"><path d="M29 16.23a13.018 13.018 0 0 1-11.444 12.907.497.497 0 0 1-.556-.5V19.23h3a1 1 0 0 0 1-1.066 1.021 1.021 0 0 0-1.031-.934H17v-3a2 2 0 0 1 2-2h2a1 1 0 0 0 1-1.066 1.02 1.02 0 0 0-1.034-.934H19a4 4 0 0 0-4 4v3h-3a1 1 0 0 0-1 1.066 1.02 1.02 0 0 0 1.034.934H15v9.41a.5.5 0 0 1-.555.5A13.019 13.019 0 0 1 3.009 15.741c.25-6.75 5.717-12.237 12.472-12.5A13.014 13.014 0 0 1 29 16.23Z" fill="#F6EAE1"/></g><defs><clipPath id="clip0_1_125"><path fill="#fff" transform="translate(0 .23)" d="M0 0h32v32H0z"/></clipPath></defs></svg>