<svg width="32" height="33" fill="none" xmlns="http://www.w3.org/2000/svg"><g clip-path="url('#clip0_1_114')"><g clip-path="url('#clip1_1_114')"><path d="m30.713 9.942-3.775 3.763C26.188 22.442 18.813 29.23 10 29.23c-1.812 0-3.312-.288-4.45-.85-.912-.463-1.287-.95-1.387-1.1a1.002 1.002 0 0 1 .487-1.488c.025-.012 2.975-1.137 4.888-3.3a13.542 13.542 0 0 1-3.088-3.05C4.738 17.117 2.925 13.08 4.013 7.055c.069-.365.333-.662.687-.775a1.002 1.002 0 0 1 1.013.237c.037.05 4.2 4.15 9.287 5.475v-.762a6.039 6.039 0 0 1 6.075-6 6.025 6.025 0 0 1 5.125 3H30a1 1 0 0 1 .925.612c.147.377.064.805-.212 1.1Z" fill="#F6EAE1"/></g></g><defs><clipPath id="clip0_1_114"><path fill="#fff" transform="translate(0 .23)" d="M0 0h32v32H0z"/></clipPath><clipPath id="clip1_1_114"><path fill="#fff" transform="translate(0 .23)" d="M0 0h32v32H0z"/></clipPath></defs></svg>