<svg width="32" height="33" fill="none" xmlns="http://www.w3.org/2000/svg"><g clip-path="url('#clip0_1_119')"><g clip-path="url('#clip1_1_119')"><path d="M12 16.23a4 4 0 1 1 8 0 4 4 0 0 1-8 0Z" fill="#fff"/><path d="M21.5 3.73h-11a7 7 0 0 0-7 7v11a7 7 0 0 0 7 7h11a7 7 0 0 0 7-7v-11a7 7 0 0 0-7-7ZM16 22.23a6 6 0 1 1 0-12 6 6 0 0 1 0 12Zm6.5-11a1.5 1.5 0 1 1 .001-3.001 1.5 1.5 0 0 1-.001 3.001Z" fill="#F6EAE1"/></g></g><defs><clipPath id="clip0_1_119"><path fill="#fff" transform="translate(0 .23)" d="M0 0h32v32H0z"/></clipPath><clipPath id="clip1_1_119"><path fill="#fff" transform="translate(0 .23)" d="M0 0h32v32H0z"/></clipPath></defs></svg>