<svg width="53" height="23" fill="none" xmlns="http://www.w3.org/2000/svg"><g clip-path="url('#clip0_1_90')"><g clip-path="url('#clip1_1_90')"><g opacity=".6" fill="#fff" stroke="#fff" stroke-width="1.13"><path d="m13.675 5.915.408-.408-.416-.399c-1.027-.986-2.411-1.747-4.337-1.747-3.475 0-6.403 2.828-6.403 6.323 0 3.495 2.928 6.323 6.403 6.323 1.86 0 3.296-.617 4.423-1.783 1.182-1.185 1.522-2.814 1.522-4.076 0-.394-.033-.772-.097-1.094l-.09-.454H8.764v2.707h3.638c-.13.449-.326.774-.565 1.013-.473.468-1.191.986-2.508.986-1.998 0-3.567-1.605-3.567-3.622s1.57-3.622 3.567-3.622c1.082 0 1.864.422 2.453.973l.399.373.386-.386 1.107-1.107Z"/><path d="M19.244 16c2.327 0 4.22-1.821 4.22-4.269 0-2.461-1.895-4.27-4.22-4.27-2.325 0-4.22 1.809-4.22 4.27 0 2.448 1.894 4.27 4.22 4.27Zm0-5.95c.764 0 1.489.631 1.489 1.681 0 1.04-.727 1.68-1.489 1.68-.76 0-1.488-.645-1.488-1.68 0-1.045.726-1.68 1.488-1.68Z"/><path d="M27.442 13.412h-.003c-.76 0-1.488-.646-1.488-1.68 0-1.046.726-1.681 1.488-1.681.764 0 1.489.63 1.489 1.68 0 1.043-.73 1.685-1.486 1.68ZM27.432 16c2.327 0 4.22-1.822 4.22-4.27 0-2.461-1.894-4.27-4.22-4.27-2.324 0-4.22 1.809-4.22 4.27 0 2.448 1.901 4.27 4.22 4.27Z"/><path d="M39.644 8.249v-.565h-2.676v.092a3.361 3.361 0 0 0-1.445-.32c-2.172 0-4.115 1.896-4.115 4.287 0 1.602.876 2.974 2.111 3.701l-.05.02-1.416.588-.522.217.217.521c.469 1.13 1.715 2.538 3.806 2.538 1.062 0 2.099-.312 2.872-1.061.778-.754 1.218-1.88 1.218-3.363V8.249Zm-5.437 7.52a3.87 3.87 0 0 0 1.316.232c.512 0 .983-.11 1.386-.293a1.386 1.386 0 0 1-.32.653c-.212.228-.542.378-1.035.378-.687 0-1.145-.488-1.347-.97Zm1.458-5.718c.732 0 1.414.639 1.414 1.699 0 1.039-.674 1.668-1.414 1.668-.785 0-1.5-.659-1.5-1.668 0-1.036.722-1.7 1.5-1.7Zm6.83-5.73v-.564h-2.756v12.027h2.756V4.322Z"/><path d="m48.65 12.486-.465-.31-.315.462c-.343.505-.76.786-1.357.786-.324 0-.572-.074-.768-.198a1.199 1.199 0 0 1-.154-.115l4.293-1.78.514-.213-.206-.517-.165-.415c-.34-.91-1.423-2.718-3.7-2.718-2.246 0-4.01 1.78-4.01 4.27 0 2.37 1.75 4.269 4.19 4.269 1.961 0 3.096-1.204 3.56-1.895l.318-.47-.472-.315-1.262-.841Zm-1.932-2.418-1.458.604c.286-.433.762-.646 1.123-.646.125 0 .236.016.335.042Z"/></g><path d="M9.33 15.442c-3.173 0-5.839-2.585-5.839-5.758S6.157 3.926 9.33 3.926c1.756 0 3.006.686 3.946 1.59l-1.107 1.106c-.675-.63-1.59-1.125-2.84-1.125-2.318 0-4.13 1.868-4.13 4.187 0 2.32 1.812 4.187 4.13 4.187 1.504 0 2.357-.606 2.908-1.15.451-.452.742-1.095.853-1.98H9.33V9.165h5.294c.056.279.087.619.087.984 0 1.181-.322 2.64-1.361 3.68-1.014 1.051-2.3 1.614-4.02 1.614Z" fill="#4285F4"/><path d="M22.9 11.731c0 2.134-1.64 3.705-3.656 3.705s-3.655-1.571-3.655-3.705c0-2.146 1.64-3.705 3.655-3.705 2.017 0 3.656 1.559 3.656 3.705Zm-1.602 0c0-1.336-.953-2.245-2.054-2.245-1.1 0-2.053.915-2.053 2.245 0 1.317.952 2.245 2.053 2.245s2.054-.921 2.054-2.245Z" fill="#E94235"/><path d="M31.088 11.731c0 2.134-1.639 3.705-3.655 3.705-2.01 0-3.655-1.571-3.655-3.705 0-2.146 1.639-3.705 3.655-3.705s3.655 1.559 3.655 3.705Zm-1.596 0c0-1.336-.952-2.245-2.053-2.245-1.1 0-2.053.915-2.053 2.245 0 1.317.952 2.245 2.053 2.245 1.1.006 2.053-.921 2.053-2.245Z" fill="#FABB05"/><path d="M39.08 8.25v6.654c0 2.74-1.615 3.86-3.526 3.86-1.8 0-2.876-1.207-3.285-2.19l1.417-.588c.254.606.872 1.318 1.868 1.318 1.224 0 1.979-.761 1.979-2.177v-.532h-.056c-.365.451-1.07.84-1.954.84-1.856 0-3.55-1.613-3.55-3.692 0-2.09 1.7-3.723 3.55-3.723.884 0 1.59.396 1.954.829h.056v-.6h1.546Zm-1.436 3.5c0-1.305-.872-2.264-1.979-2.264-1.126 0-2.066.952-2.066 2.264 0 1.292.94 2.232 2.066 2.232 1.107 0 1.98-.94 1.98-2.232Z" fill="#4285F4"/><path d="M41.93 4.322V15.22h-1.627V4.322h1.627Z" fill="#34A853"/><path d="m48.338 12.956 1.261.841c-.408.606-1.391 1.645-3.092 1.645-2.11 0-3.624-1.626-3.624-3.704 0-2.202 1.533-3.705 3.445-3.705 1.923 0 2.863 1.527 3.172 2.356l.167.42-4.954 2.054c.378.742.971 1.126 1.8 1.126.829 0 1.404-.415 1.825-1.033Zm-3.89-1.336 3.315-1.373c-.186-.464-.73-.786-1.38-.786-.829 0-1.979.73-1.936 2.159Z" fill="#E94235"/></g></g><defs><clipPath id="clip0_1_90"><path fill="#fff" transform="translate(.5 .39)" d="M0 0h52v21.84H0z"/></clipPath><clipPath id="clip1_1_90"><path fill="#fff" transform="translate(.5 .39)" d="M0 0h52v21.84H0z"/></clipPath></defs></svg>